<svg width={'100%'} height={'100%'} xmlns="http://www.w3.org/2000/svg" viewBox="0 0 1864 2132">
    <path fill="currentColor" d="M1377 3c-104 12-233 49-313 90-121 60-350 276-519 488-58 72-102 136-116 166-35 72-25 130 26 156 16 8 30 11 62 14 46 3 67 11 77 28 12 23-10 53-90 115-73 59-135 114-198 179-85 88-114 129-119 171-6 55 32 93 101 98 56 5 64 7 77 18 9 8 12 14 12 26 0 23-16 46-75 103-143 141-283 328-300 403-8 38 6 66 37 72 38 7 84-12 226-90 346-193 525-329 811-614 124-125 155-169 155-222 0-25-11-37-42-41-30-4-41-11-41-28 0-21 16-45 56-82 139-132 180-177 257-281 46-61 60-84 70-119 17-53 10-68-34-77-28-6-7-41 66-109 174-162 283-287 298-343 13-49-26-94-102-116-18-6-50-7-186-8-90 0-179 1-196 3Z" />
</svg>
