<svg xmlns="http://www.w3.org/2000/svg" viewBox="0 0 405.836 425.731">
    <path fill="currentColor" d="M186.383 1.63c-3.9 1.1-10 3.4-13.4 5.1-7.3 3.7-153.5 120.4-159.9 127.6-2.3 2.6-5.5 7.5-7.1 10.8-6 12.2-6 11-6 114.8 0 62 .4 97.3 1.1 102.4 4.1 29.7 26 54 55.3 61.4 7 1.8 11.3 2 35.5 2 15.2 0 29.1-.4 31-1 7.4-2.1 14.7-9.3 17.3-17.1.7-2.2 1.3-17.2 1.7-42.4l.6-39 2.7-5.1c3-5.6 7.7-10.2 14.1-13.6 4.2-2.3 4.6-2.3 43.7-2.3s39.5 0 43.7 2.3c6.6 3.5 11 7.9 14 14l2.8 5.7.5 40c.6 44.9.4 44 8.2 51.6 6.6 6.4 9.5 6.9 41 6.9 32.3 0 37.2-.7 51.3-7.5 22.8-11.1 37.1-31.2 40.5-56.9.7-5.4 1-40.3.8-105.6-.3-91.3-.4-97.8-2.2-103-3-9.1-7.4-16.3-13.4-22.3-8.7-8.5-148.9-119.2-155.4-122.7-10.6-5.7-16.3-7.2-29.3-7.6-9.7-.3-13.4 0-19.1 1.5z"/>
</svg>