<svg width={'100%'} height={'100%'} xmlns="http://www.w3.org/2000/svg" fill='currentColor' viewBox="0 0 354 167">
    <g>
        <path
            d="M2 28c-4 6-1 15 0 22l4 30c1 5 1 11 3 15l5 9c2-5 2-11 2-16l2-14c14 7 43 36 42 29 0-4 14-21 16-24-4-4-36-15-55-32L10 36l-8-8M79 0c1 9 3 19 6 28 1 3 1 8 4 10 2 2 5 3 7 3l15 4 38 11 25 6c-3-8-10-18-18-22l-12-4a251 251 0 0 1-52-25L79 0m194 0c-13 13-29 22-47 29l-19 7-9 3c-8 5-15 15-19 23l24-7 38-10 15-4 8-2c2-2 3-6 4-9l5-21V0m-97 3-13 18c-2 4-6 8-7 13 9 6 15 13 21 22 6-9 12-16 21-22l-8-13-13-18h-1M90 80c9 4 15 11 17 22 1 3 0 10 2 12 3 4 11 6 14 8l37 20 11 6 6 3c2 0 4-2 5-3l12-6 35-19c4-3 11-5 14-8s2-10 3-13c2-10 8-18 17-22-1-5-5-8-8-12l-8-10-4-4c-2-1-4 0-5 1l-12 4-35 12c-5 1-11 5-16 4l-14-5-33-11-12-4-5-1c-3 0-5 4-6 6-5 6-12 13-15 20Z" />
        <path
            d="M25 68v8c1 3 6 6 9 8a94 94 0 0 1 22 34c1 3 1 9 3 12l8 4 18 8c16 7 31 16 47 25 0-6-1-13-4-19-2-4-6-7-9-10-9-9-19-15-28-23-3-2-4-6-5-9l-6-18c-1-3-2-7-4-9-2-3-10-3-14-3l-37-8m197 98 18-10a514 514 0 0 1 46-22l8-4c3-3 2-9 3-12a94 94 0 0 1 23-34c2-2 7-5 8-8v-8l-15 3-23 4c-4 1-11 1-13 4-2 2-3 6-4 9l-6 18-4 9-9 6-21 18-8 10c-3 6-3 11-3 17Z" />
        <path
            d="M90 80c9 4 15 11 17 22 1 3 0 10 2 12 3 4 11 6 14 8l37 20 11 6 6 3c2 0 4-2 5-3l12-6 35-19c4-3 11-5 14-8s2-10 3-13c2-10 8-18 17-22-1-5-5-8-8-12l-8-10-4-4c-2-1-4 0-5 1l-12 4-35 12c-5 1-11 5-16 4l-14-5-33-11-12-4-5-1c-3 0-5 4-6 6-5 6-12 13-15 20ZM2 28c-4 6-1 15 0 22l4 30c1 5 1 11 3 15l5 9c2-5 2-11 2-16l2-14c14 7 43 36 42 29 0-4 14-21 16-24-4-4-36-15-55-32L10 36l-8-8Z" />
        <path
            d="M79 0c1 9 3 19 6 28 1 3 1 8 4 10 2 2 5 3 7 3l15 4 38 11 25 6c-3-8-10-18-18-22l-12-4a251 251 0 0 1-52-25L79 0ZM273 0c-13 13-29 22-47 29l-19 7-9 3c-8 5-15 15-19 23l24-7 38-10 15-4 8-2c2-2 3-6 4-9l5-21V0ZM176 3l-13 18c-2 4-6 8-7 13 9 6 15 13 21 22 6-9 12-16 21-22l-8-13-13-18h-1Z" />
        <path
            d="M352 28c3 6 0 15-1 22l-4 30-2 15-6 9c-2-5-2-11-2-16l-1-14c-15 7-43 36-43 29 0-4-14-21-16-24 4-4 37-15 55-32l11-11c3-3 5-6 9-8" />
    </g>
</svg>