<svg xmlns="http://www.w3.org/2000/svg" width='100%' height='100%' viewBox="0 0 1815 2132">
    <g fill="currentColor">
        <path
            d="M838 2C669 29 560 135 510 321a918 918 0 0 0-17 346 557 557 0 0 0 220 367c121 81 268 81 385 1 99-66 176-183 210-318 15-62 20-105 20-183-1-199-50-347-147-438-68-64-146-93-258-96-33 0-72 0-85 2Z" />
        <path
            d="M257 1038c-51 14-85 40-132 102-58 77-95 148-115 224-13 46-13 146-1 193 53 194 78 248 154 323 228 229 757 318 1170 197 191-55 335-157 397-281 20-39 28-64 39-117 5-25 15-63 21-85 18-55 25-95 25-135 0-87-32-178-96-274-76-115-123-148-214-153-68-2-118 9-192 46-78 38-87 48-175 190-90 143-131 193-184 218a98 98 0 0 1-96 0c-53-27-94-76-183-218-72-115-90-138-125-162-38-26-96-51-146-64-47-12-111-14-147-4Z" />
    </g>
</svg>