<?xml version="1.0" encoding="UTF-8" standalone="no"?>
<!DOCTYPE svg PUBLIC "-//W3C//DTD SVG 1.1//EN" "http://www.w3.org/Graphics/SVG/1.1/DTD/svg11.dtd">
<svg width="100%" height="100%" viewBox="0 0 354 167" version="1.1" xmlns="http://www.w3.org/2000/svg" xmlns:xlink="http://www.w3.org/1999/xlink" xml:space="preserve" style="fill-rule:evenodd;clip-rule:evenodd;stroke-linejoin:round;stroke-miterlimit:2;">
    <g transform="matrix(4.16667,0,0,4.16667,854.441,-5931.79)">
        <g transform="matrix(0.0403185,0,0,0.0403181,-205.066,1423.63)">
            <path d="M9.864,166.667C-11.576,205.133 7.877,254.462 12.841,295.833C20.019,355.654 29.961,415.196 37.825,475C41.613,503.808 40.562,539.454 50.878,566.667C58.207,586 73.356,603.775 84.864,620.833C97.984,589.858 95.481,553.783 97.737,520.833C99.646,492.954 105.465,465.512 105.697,437.5C192.664,483.787 360.92,656.493 358.944,612.144C357.807,586.608 443.405,490.013 452.876,467.267C431.549,446.829 236.526,381.258 126.531,278.796C103.864,257.679 81.356,235.471 60.571,212.5C44.757,195.021 31.597,176.804 9.864,166.667M472.364,0C473.526,54.496 489.593,114.25 504.489,166.667C510.21,186.796 514.551,211.975 529.189,227.904C539.843,239.496 557.768,242.475 572.364,246.317C601.551,253.992 630.826,261.383 659.864,269.625C735.918,291.208 812.856,309.758 889.031,330.933C936.11,344.021 986.056,362.679 1034.86,366.667C1015.15,320.967 974.518,262.996 930.697,237.871C908.697,225.258 879.701,220.667 855.697,212.487C807.814,196.171 760.026,178.162 714.031,157.046C656.222,130.508 598.997,100.887 547.364,63.562C520.647,44.25 499.135,18.858 472.364,0M1626.53,0C1547.09,79.442 1451.06,132.317 1347.37,174.162C1310.3,189.125 1272.8,202.679 1234.87,215.279C1215.72,221.637 1194.32,225.371 1176.53,235.071C1130.79,260.021 1088.53,319.558 1068.2,366.667C1115.9,359.65 1163.34,342.383 1209.87,329.796C1284.8,309.525 1360.17,290.825 1434.87,269.625C1465.23,261.008 1495.92,252.971 1526.53,245.304C1540.8,241.737 1559.04,239.912 1570.74,230.3C1585.32,218.321 1590.01,196.412 1594.95,179.167C1606.58,138.625 1618.23,96.1 1622.7,54.167C1624.67,35.646 1633.87,17.983 1626.53,0M1047.37,16.667C1022.87,52.979 998.363,89.317 972.954,125C956.379,148.279 935.567,172.762 926.534,200C979.717,238.237 1015.38,279.833 1051.53,333.333C1088.4,280.171 1123.19,238.354 1176.53,200C1167.5,172.762 1146.69,148.279 1130.11,125C1104.7,89.317 1080.2,52.975 1055.7,16.667L1047.37,16.667M534.867,475C591.046,501.746 624.609,543.35 639.459,604.167C644.521,624.9 639.846,663.771 651.65,680.679C667.029,702.708 711.709,715.75 734.867,728.587C806.771,768.446 879.642,806.537 951.534,846.412C973.571,858.637 995.75,870.871 1018.2,882.312C1028.23,887.429 1039.86,895.846 1051.53,895.846C1063.17,895.846 1074.91,887.467 1084.87,882.271C1108.7,869.821 1132.28,856.638 1155.7,843.433C1224.46,804.679 1294.6,768.008 1364.03,730.454C1388.99,716.954 1431.02,704.05 1449.02,681.708C1462.8,664.6 1458.36,625.658 1463.61,604.167C1477.99,545.279 1511.55,498.712 1568.2,475C1556.96,448.442 1535.28,426.554 1517.37,404.167L1470.7,345.837C1464.01,337.537 1456.89,326.021 1446.65,321.717C1436.2,317.317 1423.99,323.108 1414.03,326.387L1347.37,348.612C1276.42,372.267 1205.85,397.175 1134.87,420.833C1109.19,429.392 1070.32,451.312 1043.2,447.029C1014.12,442.437 983.671,427.379 955.7,418.054C891.663,396.708 827.979,374.308 764.034,352.779L693.2,329.154C683.421,325.829 670.846,318.821 660.242,320.758C644.117,323.704 631.796,346.55 622.367,358.333C593.479,394.442 552.954,432.271 534.867,475Z" style="fill:white;fill-rule:nonzero;"/>
            <path d="M146.788,404.61C146.788,418.772 144,436.676 149.3,450.068C157.604,471.051 184.875,486.293 200.892,501.151C228.283,526.555 254.313,557.393 275.804,587.943C301.421,624.36 322.746,661.743 335.45,704.61C340.75,722.489 336.442,758.285 349.3,771.405C360.671,783.01 382.2,788.426 396.788,795.001C432.846,811.26 469.179,826.893 505.121,843.397C601.958,887.86 692.083,939.585 784.288,992.11C784.188,955.801 778.421,916.543 761.883,883.776C749.438,859.126 728.542,840.526 709.288,821.276C657.158,769.164 593.463,733.468 539.392,684.776C523.971,670.893 519.779,648.568 513.454,629.61C501.363,593.372 488.267,557.451 475.942,521.276C470.621,505.655 465.875,482.085 454.763,469.564C440.421,453.401 392.508,453.822 371.788,449.614C297.188,434.455 222.363,414.368 146.788,404.61M1321.79,987.943C1357.51,970.172 1390.65,945.822 1425.95,926.73C1484.32,895.164 1544.86,866.897 1605.12,839.23C1636.91,824.635 1668.83,810.143 1700.95,796.276C1716.53,789.555 1740.42,783.364 1752.61,771.301C1765.46,758.576 1761.24,722.222 1766.46,704.61C1779.16,661.743 1800.49,624.36 1826.1,587.943C1847.6,557.393 1873.62,526.555 1901.02,501.151C1917.03,486.293 1944.3,471.051 1952.61,450.068C1957.91,436.676 1955.12,418.772 1955.12,404.61C1924.79,405.318 1893.16,414.085 1863.45,420.397C1817.68,430.13 1771.67,438.635 1725.95,448.676C1705.3,453.21 1661.76,453.089 1647.15,469.564C1636.03,482.085 1631.29,505.655 1625.97,521.276C1613.64,557.451 1600.55,593.372 1588.45,629.61C1582.7,646.847 1578.78,668.105 1565.88,681.618C1551.36,696.814 1530.3,707.226 1513.45,719.735C1469.37,752.472 1427.3,786.58 1388.45,825.443C1369.37,844.539 1349.52,863.035 1338.04,887.943C1323.05,920.472 1321.79,952.876 1321.79,987.943Z" style="fill:white;fill-rule:nonzero;"/>
            <path d="M534.864,475C591.043,501.746 624.606,543.35 639.456,604.167C644.518,624.9 639.843,663.771 651.647,680.679C667.026,702.708 711.706,715.75 734.864,728.588C806.768,768.446 879.639,806.538 951.531,846.413C973.568,858.637 995.747,870.871 1018.2,882.312C1028.23,887.429 1039.86,895.846 1051.53,895.846C1063.16,895.846 1074.91,887.467 1084.86,882.271C1108.7,869.821 1132.28,856.638 1155.7,843.433C1224.46,804.679 1294.6,768.008 1364.03,730.454C1388.99,716.954 1431.02,704.05 1449.02,681.708C1462.79,664.6 1458.36,625.658 1463.61,604.167C1477.99,545.279 1511.55,498.712 1568.2,475C1556.96,448.442 1535.28,426.554 1517.36,404.167L1470.7,345.838C1464.01,337.537 1456.88,326.021 1446.65,321.717C1436.2,317.317 1423.99,323.108 1414.03,326.388L1347.36,348.612C1276.41,372.267 1205.84,397.175 1134.86,420.833C1109.18,429.392 1070.32,451.312 1043.2,447.029C1014.12,442.437 983.668,427.379 955.697,418.054C891.66,396.708 827.976,374.308 764.031,352.779L693.197,329.154C683.418,325.829 670.843,318.821 660.239,320.758C644.114,323.704 631.793,346.55 622.364,358.333C593.476,394.442 552.951,432.271 534.864,475Z" style="fill:white;"/>
            <path d="M9.864,166.667C-11.576,205.133 7.877,254.462 12.841,295.833C20.019,355.654 29.961,415.196 37.825,475C41.613,503.808 40.562,539.454 50.878,566.667C58.207,586 73.356,603.775 84.864,620.833C97.984,589.858 95.481,553.783 97.737,520.833C99.646,492.954 105.465,465.512 105.697,437.5C192.664,483.787 360.92,656.493 358.944,612.144C357.807,586.608 443.405,490.013 452.876,467.267C431.549,446.829 236.526,381.258 126.531,278.796C103.864,257.679 81.356,235.471 60.571,212.5C44.757,195.021 31.597,176.804 9.864,166.667Z" style="fill:white;"/>
            <path d="M472.364,0C473.526,54.496 489.593,114.25 504.489,166.667C510.21,186.796 514.551,211.975 529.189,227.904C539.843,239.496 557.768,242.475 572.364,246.317C601.551,253.992 630.826,261.383 659.864,269.625C735.918,291.208 812.856,309.758 889.031,330.933C936.11,344.021 986.056,362.679 1034.86,366.667C1015.15,320.967 974.518,262.996 930.697,237.871C908.697,225.258 879.701,220.667 855.697,212.488C807.814,196.171 760.026,178.162 714.031,157.046C656.222,130.508 598.997,100.888 547.364,63.563C520.647,44.25 499.135,18.858 472.364,-0Z" style="fill:white;"/>
            <path d="M1626.53,0C1547.08,79.442 1451.06,132.317 1347.36,174.163C1310.29,189.125 1272.8,202.679 1234.86,215.279C1215.72,221.638 1194.32,225.371 1176.53,235.071C1130.78,260.021 1088.52,319.558 1068.2,366.667C1115.9,359.65 1163.33,342.383 1209.86,329.796C1284.8,309.525 1360.17,290.825 1434.86,269.625C1465.22,261.008 1495.92,252.971 1526.53,245.304C1540.79,241.738 1559.04,239.913 1570.74,230.3C1585.32,218.321 1590.01,196.413 1594.95,179.167C1606.58,138.625 1618.23,96.1 1622.69,54.167C1624.66,35.646 1633.86,17.983 1626.53,0Z" style="fill:white;"/>
            <path d="M1047.36,16.667C1022.86,52.979 998.356,89.317 972.947,125C956.372,148.279 935.56,172.763 926.527,200C979.71,238.237 1015.37,279.833 1051.53,333.333C1088.39,280.171 1123.18,238.354 1176.53,200C1167.49,172.763 1146.68,148.279 1130.11,125C1104.7,89.317 1080.19,52.975 1055.69,16.667L1047.36,16.667Z" style="fill:white;"/>
            <path d="M2093.23,166.667C2114.67,205.133 2095.22,254.462 2090.25,295.833C2083.07,355.654 2073.13,415.196 2065.27,475C2061.48,503.808 2062.53,539.454 2052.22,566.667C2044.89,586 2029.74,603.775 2018.23,620.833C2005.11,589.858 2007.61,553.783 2005.36,520.833C2003.45,492.954 1997.63,465.512 1997.4,437.5C1910.43,483.787 1742.17,656.493 1744.15,612.144C1745.29,586.608 1659.69,490.013 1650.22,467.267C1671.55,446.829 1866.57,381.258 1976.56,278.796C1999.23,257.679 2021.74,235.471 2042.52,212.5C2058.34,195.021 2071.5,176.804 2093.23,166.667" style="fill:white;fill-rule:nonzero;"/>
        </g>
    </g>
</svg>
